<?xml version="1.0" standalone="no"?>
<!DOCTYPE svg PUBLIC "-//W3C//DTD SVG 1.1//EN" "http://www.w3.org/Graphics/SVG/1.1/DTD/svg11.dtd">
<svg version="1.1" width="1200" height="278" onload="init(evt)" viewBox="0 0 1200 278" xmlns="http://www.w3.org/2000/svg" xmlns:xlink="http://www.w3.org/1999/xlink">
<!-- Flame graph stack visualization. See https://github.com/brendangregg/FlameGraph for latest version, and http://www.brendangregg.com/flamegraphs.html for examples. -->
<!-- NOTES:  -->
<defs>
	<linearGradient id="background" y1="0" y2="1" x1="0" x2="0" >
		<stop stop-color="#eeeeee" offset="5%" />
		<stop stop-color="#eeeeb0" offset="95%" />
	</linearGradient>
</defs>
<style type="text/css">
	text { font-family:Verdana; font-size:12px; fill:rgb(0,0,0); }
	#search { opacity:0.1; cursor:pointer; }
	#search:hover, #search.show { opacity:1; }
	#subtitle { text-anchor:middle; font-color:rgb(160,160,160); }
	#title { text-anchor:middle; font-size:17px}
	#unzoom { cursor:pointer; }
	#frames > *:hover { stroke:black; stroke-width:0.5; cursor:pointer; }
	.hide { display:none; }
	.parent { opacity:0.5; }
</style>
<script type="text/ecmascript">
<![CDATA[
	"use strict";
	var details, searchbtn, unzoombtn, matchedtxt, svg, searching;
	function init(evt) {
		details = document.getElementById("details").firstChild;
		searchbtn = document.getElementById("search");
		unzoombtn = document.getElementById("unzoom");
		matchedtxt = document.getElementById("matched");
		svg = document.getElementsByTagName("svg")[0];
		searching = 0;
	}

	window.addEventListener("click", function(e) {
		var target = find_group(e.target);
		if (target) {
			if (target.nodeName == "a") {
				if (e.ctrlKey === false) return;
				e.preventDefault();
			}
			if (target.classList.contains("parent")) unzoom();
			zoom(target);
		}
		else if (e.target.id == "unzoom") unzoom();
		else if (e.target.id == "search") search_prompt();
	}, false)

	// mouse-over for info
	// show
	window.addEventListener("mouseover", function(e) {
		var target = find_group(e.target);
		if (target) details.nodeValue = "Function: " + g_to_text(target);
	}, false)

	// clear
	window.addEventListener("mouseout", function(e) {
		var target = find_group(e.target);
		if (target) details.nodeValue = ' ';
	}, false)

	// ctrl-F for search
	window.addEventListener("keydown",function (e) {
		if (e.keyCode === 114 || (e.ctrlKey && e.keyCode === 70)) {
			e.preventDefault();
			search_prompt();
		}
	}, false)

	// functions
	function find_child(node, selector) {
		var children = node.querySelectorAll(selector);
		if (children.length) return children[0];
		return;
	}
	function find_group(node) {
		var parent = node.parentElement;
		if (!parent) return;
		if (parent.id == "frames") return node;
		return find_group(parent);
	}
	function orig_save(e, attr, val) {
		if (e.attributes["_orig_" + attr] != undefined) return;
		if (e.attributes[attr] == undefined) return;
		if (val == undefined) val = e.attributes[attr].value;
		e.setAttribute("_orig_" + attr, val);
	}
	function orig_load(e, attr) {
		if (e.attributes["_orig_"+attr] == undefined) return;
		e.attributes[attr].value = e.attributes["_orig_" + attr].value;
		e.removeAttribute("_orig_"+attr);
	}
	function g_to_text(e) {
		var text = find_child(e, "title").firstChild.nodeValue;
		return (text)
	}
	function g_to_func(e) {
		var func = g_to_text(e);
		// if there's any manipulation we want to do to the function
		// name before it's searched, do it here before returning.
		return (func);
	}
	function update_text(e) {
		var r = find_child(e, "rect");
		var t = find_child(e, "text");
		var w = parseFloat(r.attributes.width.value) -3;
		var txt = find_child(e, "title").textContent.replace(/\([^(]*\)$/,"");
		t.attributes.x.value = parseFloat(r.attributes.x.value) + 3;

		// Smaller than this size won't fit anything
		if (w < 2 * 12 * 0.59) {
			t.textContent = "";
			return;
		}

		t.textContent = txt;
		// Fit in full text width
		if (/^ *$/.test(txt) || t.getSubStringLength(0, txt.length) < w)
			return;

		for (var x = txt.length - 2; x > 0; x--) {
			if (t.getSubStringLength(0, x + 2) <= w) {
				t.textContent = txt.substring(0, x) + "..";
				return;
			}
		}
		t.textContent = "";
	}

	// zoom
	function zoom_reset(e) {
		if (e.attributes != undefined) {
			orig_load(e, "x");
			orig_load(e, "width");
		}
		if (e.childNodes == undefined) return;
		for (var i = 0, c = e.childNodes; i < c.length; i++) {
			zoom_reset(c[i]);
		}
	}
	function zoom_child(e, x, ratio) {
		if (e.attributes != undefined) {
			if (e.attributes.x != undefined) {
				orig_save(e, "x");
				e.attributes.x.value = (parseFloat(e.attributes.x.value) - x - 10) * ratio + 10;
				if (e.tagName == "text")
					e.attributes.x.value = find_child(e.parentNode, "rect[x]").attributes.x.value + 3;
			}
			if (e.attributes.width != undefined) {
				orig_save(e, "width");
				e.attributes.width.value = parseFloat(e.attributes.width.value) * ratio;
			}
		}

		if (e.childNodes == undefined) return;
		for (var i = 0, c = e.childNodes; i < c.length; i++) {
			zoom_child(c[i], x - 10, ratio);
		}
	}
	function zoom_parent(e) {
		if (e.attributes) {
			if (e.attributes.x != undefined) {
				orig_save(e, "x");
				e.attributes.x.value = 10;
			}
			if (e.attributes.width != undefined) {
				orig_save(e, "width");
				e.attributes.width.value = parseInt(svg.width.baseVal.value) - (10 * 2);
			}
		}
		if (e.childNodes == undefined) return;
		for (var i = 0, c = e.childNodes; i < c.length; i++) {
			zoom_parent(c[i]);
		}
	}
	function zoom(node) {
		var attr = find_child(node, "rect").attributes;
		var width = parseFloat(attr.width.value);
		var xmin = parseFloat(attr.x.value);
		var xmax = parseFloat(xmin + width);
		var ymin = parseFloat(attr.y.value);
		var ratio = (svg.width.baseVal.value - 2 * 10) / width;

		// XXX: Workaround for JavaScript float issues (fix me)
		var fudge = 0.0001;

		unzoombtn.classList.remove("hide");

		var el = document.getElementById("frames").children;
		for (var i = 0; i < el.length; i++) {
			var e = el[i];
			var a = find_child(e, "rect").attributes;
			var ex = parseFloat(a.x.value);
			var ew = parseFloat(a.width.value);
			var upstack;
			// Is it an ancestor
			if (0 == 0) {
				upstack = parseFloat(a.y.value) > ymin;
			} else {
				upstack = parseFloat(a.y.value) < ymin;
			}
			if (upstack) {
				// Direct ancestor
				if (ex <= xmin && (ex+ew+fudge) >= xmax) {
					e.classList.add("parent");
					zoom_parent(e);
					update_text(e);
				}
				// not in current path
				else
					e.classList.add("hide");
			}
			// Children maybe
			else {
				// no common path
				if (ex < xmin || ex + fudge >= xmax) {
					e.classList.add("hide");
				}
				else {
					zoom_child(e, xmin, ratio);
					update_text(e);
				}
			}
		}
	}
	function unzoom() {
		unzoombtn.classList.add("hide");
		var el = document.getElementById("frames").children;
		for(var i = 0; i < el.length; i++) {
			el[i].classList.remove("parent");
			el[i].classList.remove("hide");
			zoom_reset(el[i]);
			update_text(el[i]);
		}
	}

	// search
	function reset_search() {
		var el = document.querySelectorAll("#frames rect");
		for (var i = 0; i < el.length; i++) {
			orig_load(el[i], "fill")
		}
	}
	function search_prompt() {
		if (!searching) {
			var term = prompt("Enter a search term (regexp " +
			    "allowed, eg: ^ext4_)", "");
			if (term != null) {
				search(term)
			}
		} else {
			reset_search();
			searching = 0;
			searchbtn.classList.remove("show");
			searchbtn.firstChild.nodeValue = "Search"
			matchedtxt.classList.add("hide");
			matchedtxt.firstChild.nodeValue = ""
		}
	}
	function search(term) {
		var re = new RegExp(term);
		var el = document.getElementById("frames").children;
		var matches = new Object();
		var maxwidth = 0;
		for (var i = 0; i < el.length; i++) {
			var e = el[i];
			var func = g_to_func(e);
			var rect = find_child(e, "rect");
			if (func == null || rect == null)
				continue;

			// Save max width. Only works as we have a root frame
			var w = parseFloat(rect.attributes.width.value);
			if (w > maxwidth)
				maxwidth = w;

			if (func.match(re)) {
				// highlight
				var x = parseFloat(rect.attributes.x.value);
				orig_save(rect, "fill");
				rect.attributes.fill.value = "rgb(230,0,230)";

				// remember matches
				if (matches[x] == undefined) {
					matches[x] = w;
				} else {
					if (w > matches[x]) {
						// overwrite with parent
						matches[x] = w;
					}
				}
				searching = 1;
			}
		}
		if (!searching)
			return;

		searchbtn.classList.add("show");
		searchbtn.firstChild.nodeValue = "Reset Search";

		// calculate percent matched, excluding vertical overlap
		var count = 0;
		var lastx = -1;
		var lastw = 0;
		var keys = Array();
		for (k in matches) {
			if (matches.hasOwnProperty(k))
				keys.push(k);
		}
		// sort the matched frames by their x location
		// ascending, then width descending
		keys.sort(function(a, b){
			return a - b;
		});
		// Step through frames saving only the biggest bottom-up frames
		// thanks to the sort order. This relies on the tree property
		// where children are always smaller than their parents.
		var fudge = 0.0001;	// JavaScript floating point
		for (var k in keys) {
			var x = parseFloat(keys[k]);
			var w = matches[keys[k]];
			if (x >= lastx + lastw - fudge) {
				count += w;
				lastx = x;
				lastw = w;
			}
		}
		// display matched percent
		matchedtxt.classList.remove("hide");
		var pct = 100 * count / maxwidth;
		if (pct != 100) pct = pct.toFixed(1)
		matchedtxt.firstChild.nodeValue = "Matched: " + pct + "%";
	}
]]>
</script>
<rect x="0.0" y="0" width="1200.0" height="278.0" fill="url(#background)"  />
<text id="title" x="600.00" y="24" >Flame Graph</text>
<text id="details" x="10.00" y="261" > </text>
<text id="unzoom" x="10.00" y="24" class="hide">Reset Zoom</text>
<text id="search" x="1090.00" y="24" >Search</text>
<text id="matched" x="1090.00" y="261" > </text>
<g id="frames">
<g >
<title>fmt.Sprintf (1 samples, 1.56%)</title><rect x="305.0" y="197" width="18.4" height="15.0" fill="rgb(243,190,18)" rx="2" ry="2" />
<text  x="308.00" y="207.5" ></text>
</g>
<g >
<title>runtime.startm (3 samples, 4.69%)</title><rect x="968.8" y="133" width="55.3" height="15.0" fill="rgb(233,44,16)" rx="2" ry="2" />
<text  x="971.75" y="143.5" >runti..</text>
</g>
<g >
<title>runtime.notewakeup (2 samples, 3.12%)</title><rect x="341.9" y="165" width="36.9" height="15.0" fill="rgb(237,42,28)" rx="2" ry="2" />
<text  x="344.88" y="175.5" >run..</text>
</g>
<g >
<title>runtime.handoffp (6 samples, 9.38%)</title><rect x="821.2" y="165" width="110.7" height="15.0" fill="rgb(218,13,29)" rx="2" ry="2" />
<text  x="824.25" y="175.5" >runtime.hando..</text>
</g>
<g >
<title>runtime.typedmemmove (1 samples, 1.56%)</title><rect x="323.4" y="165" width="18.5" height="15.0" fill="rgb(219,10,41)" rx="2" ry="2" />
<text  x="326.44" y="175.5" ></text>
</g>
<g >
<title>runtime.semawakeup (1 samples, 1.56%)</title><rect x="950.3" y="133" width="18.5" height="15.0" fill="rgb(218,81,36)" rx="2" ry="2" />
<text  x="953.31" y="143.5" ></text>
</g>
<g >
<title>runtime.semawakeup (3 samples, 4.69%)</title><rect x="968.8" y="101" width="55.3" height="15.0" fill="rgb(247,153,50)" rx="2" ry="2" />
<text  x="971.75" y="111.5" >runti..</text>
</g>
<g >
<title>internal/poll.(*FD).Write (16 samples, 25.00%)</title><rect x="10.0" y="133" width="295.0" height="15.0" fill="rgb(230,198,44)" rx="2" ry="2" />
<text  x="13.00" y="143.5" >internal/poll.(*FD).Write</text>
</g>
<g >
<title>runtime.pthread_cond_signal (2 samples, 3.12%)</title><rect x="341.9" y="133" width="36.9" height="15.0" fill="rgb(250,227,33)" rx="2" ry="2" />
<text  x="344.88" y="143.5" >run..</text>
</g>
<g >
<title>runtime.semawakeup (3 samples, 4.69%)</title><rect x="655.3" y="101" width="55.3" height="15.0" fill="rgb(243,28,16)" rx="2" ry="2" />
<text  x="658.31" y="111.5" >runti..</text>
</g>
<g >
<title>runtime.semawakeup (6 samples, 9.38%)</title><rect x="821.2" y="117" width="110.7" height="15.0" fill="rgb(226,179,36)" rx="2" ry="2" />
<text  x="824.25" y="127.5" >runtime.semaw..</text>
</g>
<g >
<title>sync.(*Map).Store (1 samples, 1.56%)</title><rect x="323.4" y="197" width="18.5" height="15.0" fill="rgb(249,78,0)" rx="2" ry="2" />
<text  x="326.44" y="207.5" ></text>
</g>
<g >
<title>runtime.(*timersBucket).addtimerLocked (2 samples, 3.12%)</title><rect x="341.9" y="181" width="36.9" height="15.0" fill="rgb(206,160,35)" rx="2" ry="2" />
<text  x="344.88" y="191.5" >run..</text>
</g>
<g >
<title>runtime.schedule (15 samples, 23.44%)</title><rect x="434.1" y="181" width="276.5" height="15.0" fill="rgb(245,153,2)" rx="2" ry="2" />
<text  x="437.06" y="191.5" >runtime.schedule</text>
</g>
<g >
<title>runtime.mstart1 (6 samples, 9.38%)</title><rect x="710.6" y="197" width="110.6" height="15.0" fill="rgb(214,201,30)" rx="2" ry="2" />
<text  x="713.62" y="207.5" >runtime.mstart1</text>
</g>
<g >
<title>runtime.goready.func1 (3 samples, 4.69%)</title><rect x="968.8" y="181" width="55.3" height="15.0" fill="rgb(251,122,12)" rx="2" ry="2" />
<text  x="971.75" y="191.5" >runti..</text>
</g>
<g >
<title>runtime.stopm (10 samples, 15.62%)</title><rect x="470.9" y="149" width="184.4" height="15.0" fill="rgb(233,135,51)" rx="2" ry="2" />
<text  x="473.94" y="159.5" >runtime.stopm</text>
</g>
<g >
<title>runtime.exitsyscall0 (2 samples, 3.12%)</title><rect x="397.2" y="197" width="36.9" height="15.0" fill="rgb(248,31,7)" rx="2" ry="2" />
<text  x="400.19" y="207.5" >run..</text>
</g>
<g >
<title>os.(*File).write (16 samples, 25.00%)</title><rect x="10.0" y="149" width="295.0" height="15.0" fill="rgb(226,27,13)" rx="2" ry="2" />
<text  x="13.00" y="159.5" >os.(*File).write</text>
</g>
<g >
<title>runtime.nanotime (3 samples, 4.69%)</title><rect x="710.6" y="165" width="55.3" height="15.0" fill="rgb(205,206,42)" rx="2" ry="2" />
<text  x="713.62" y="175.5" >runti..</text>
</g>
<g >
<title>fmt.Fprintln (16 samples, 25.00%)</title><rect x="10.0" y="181" width="295.0" height="15.0" fill="rgb(221,176,25)" rx="2" ry="2" />
<text  x="13.00" y="191.5" >fmt.Fprintln</text>
</g>
<g >
<title>runtime.casgstatus (1 samples, 1.56%)</title><rect x="286.6" y="37" width="18.4" height="15.0" fill="rgb(228,138,25)" rx="2" ry="2" />
<text  x="289.56" y="47.5" ></text>
</g>
<g >
<title>runtime.semasleep (2 samples, 3.12%)</title><rect x="397.2" y="149" width="36.9" height="15.0" fill="rgb(241,41,9)" rx="2" ry="2" />
<text  x="400.19" y="159.5" >run..</text>
</g>
<g >
<title>runtime.notetsleepg (8 samples, 12.50%)</title><rect x="1042.5" y="197" width="147.5" height="15.0" fill="rgb(236,202,53)" rx="2" ry="2" />
<text  x="1045.50" y="207.5" >runtime.notetsleepg</text>
</g>
<g >
<title>runtime.pthread_cond_wait (10 samples, 15.62%)</title><rect x="470.9" y="101" width="184.4" height="15.0" fill="rgb(228,24,52)" rx="2" ry="2" />
<text  x="473.94" y="111.5" >runtime.pthread_cond_wait</text>
</g>
<g >
<title>runtime.exitsyscallfast.func1 (2 samples, 3.12%)</title><rect x="931.9" y="181" width="36.9" height="15.0" fill="rgb(234,45,29)" rx="2" ry="2" />
<text  x="934.88" y="191.5" >run..</text>
</g>
<g >
<title>runtime.runqgrab (2 samples, 3.12%)</title><rect x="434.1" y="133" width="36.8" height="15.0" fill="rgb(218,148,20)" rx="2" ry="2" />
<text  x="437.06" y="143.5" >run..</text>
</g>
<g >
<title>fmt.Println (16 samples, 25.00%)</title><rect x="10.0" y="197" width="295.0" height="15.0" fill="rgb(237,122,42)" rx="2" ry="2" />
<text  x="13.00" y="207.5" >fmt.Println</text>
</g>
<g >
<title>runtime.mcall (17 samples, 26.56%)</title><rect x="397.2" y="213" width="313.4" height="15.0" fill="rgb(252,88,15)" rx="2" ry="2" />
<text  x="400.19" y="223.5" >runtime.mcall</text>
</g>
<g >
<title>os.(*File).Write (16 samples, 25.00%)</title><rect x="10.0" y="165" width="295.0" height="15.0" fill="rgb(244,98,17)" rx="2" ry="2" />
<text  x="13.00" y="175.5" >os.(*File).Write</text>
</g>
<g >
<title>syscall.syscall (16 samples, 25.00%)</title><rect x="10.0" y="85" width="295.0" height="15.0" fill="rgb(222,181,38)" rx="2" ry="2" />
<text  x="13.00" y="95.5" >syscall.syscall</text>
</g>
<g >
<title>runtime.startm (6 samples, 9.38%)</title><rect x="821.2" y="149" width="110.7" height="15.0" fill="rgb(242,11,38)" rx="2" ry="2" />
<text  x="824.25" y="159.5" >runtime.startm</text>
</g>
<g >
<title>runtime.wakep (3 samples, 4.69%)</title><rect x="655.3" y="149" width="55.3" height="15.0" fill="rgb(214,214,42)" rx="2" ry="2" />
<text  x="658.31" y="159.5" >runti..</text>
</g>
<g >
<title>runtime.pthread_cond_signal (3 samples, 4.69%)</title><rect x="655.3" y="85" width="55.3" height="15.0" fill="rgb(214,193,41)" rx="2" ry="2" />
<text  x="658.31" y="95.5" >runti..</text>
</g>
<g >
<title>syscall.Write (16 samples, 25.00%)</title><rect x="10.0" y="117" width="295.0" height="15.0" fill="rgb(227,4,50)" rx="2" ry="2" />
<text  x="13.00" y="127.5" >syscall.Write</text>
</g>
<g >
<title>runtime.findrunnable (12 samples, 18.75%)</title><rect x="434.1" y="165" width="221.2" height="15.0" fill="rgb(212,59,49)" rx="2" ry="2" />
<text  x="437.06" y="175.5" >runtime.findrunnable</text>
</g>
<g >
<title>runtime.semasleep (10 samples, 15.62%)</title><rect x="470.9" y="117" width="184.4" height="15.0" fill="rgb(207,21,29)" rx="2" ry="2" />
<text  x="473.94" y="127.5" >runtime.semasleep</text>
</g>
<g >
<title>runtime.notesleep (2 samples, 3.12%)</title><rect x="397.2" y="165" width="36.9" height="15.0" fill="rgb(207,95,11)" rx="2" ry="2" />
<text  x="400.19" y="175.5" >run..</text>
</g>
<g >
<title>runtime.entersyscall (1 samples, 1.56%)</title><rect x="286.6" y="69" width="18.4" height="15.0" fill="rgb(230,86,36)" rx="2" ry="2" />
<text  x="289.56" y="79.5" ></text>
</g>
<g >
<title>runtime.reentersyscall (1 samples, 1.56%)</title><rect x="286.6" y="53" width="18.4" height="15.0" fill="rgb(241,55,22)" rx="2" ry="2" />
<text  x="289.56" y="63.5" ></text>
</g>
<g >
<title>runtime.slicebytetostring (1 samples, 1.56%)</title><rect x="305.0" y="181" width="18.4" height="15.0" fill="rgb(218,152,22)" rx="2" ry="2" />
<text  x="308.00" y="191.5" ></text>
</g>
<g >
<title>runtime.wakep (3 samples, 4.69%)</title><rect x="968.8" y="149" width="55.3" height="15.0" fill="rgb(238,209,8)" rx="2" ry="2" />
<text  x="971.75" y="159.5" >runti..</text>
</g>
<g >
<title>runtime.semawakeup (2 samples, 3.12%)</title><rect x="341.9" y="149" width="36.9" height="15.0" fill="rgb(215,164,44)" rx="2" ry="2" />
<text  x="344.88" y="159.5" >run..</text>
</g>
<g >
<title>runtime.goroutineReady (1 samples, 1.56%)</title><rect x="1024.1" y="197" width="18.4" height="15.0" fill="rgb(240,195,36)" rx="2" ry="2" />
<text  x="1027.06" y="207.5" ></text>
</g>
<g >
<title>runtime.park_m (15 samples, 23.44%)</title><rect x="434.1" y="197" width="276.5" height="15.0" fill="rgb(215,76,24)" rx="2" ry="2" />
<text  x="437.06" y="207.5" >runtime.park_m</text>
</g>
<g >
<title>main.main.func1 (20 samples, 31.25%)</title><rect x="10.0" y="213" width="368.8" height="15.0" fill="rgb(242,212,5)" rx="2" ry="2" />
<text  x="13.00" y="223.5" >main.main.func1</text>
</g>
<g >
<title>runtime.notewakeup (1 samples, 1.56%)</title><rect x="950.3" y="149" width="18.5" height="15.0" fill="rgb(214,212,18)" rx="2" ry="2" />
<text  x="953.31" y="159.5" ></text>
</g>
<g >
<title>all (64 samples, 100%)</title><rect x="10.0" y="229" width="1180.0" height="15.0" fill="rgb(242,46,26)" rx="2" ry="2" />
<text  x="13.00" y="239.5" ></text>
</g>
<g >
<title>runtime.mallocgc (1 samples, 1.56%)</title><rect x="305.0" y="165" width="18.4" height="15.0" fill="rgb(205,68,51)" rx="2" ry="2" />
<text  x="308.00" y="175.5" ></text>
</g>
<g >
<title>syscall.write (16 samples, 25.00%)</title><rect x="10.0" y="101" width="295.0" height="15.0" fill="rgb(215,37,18)" rx="2" ry="2" />
<text  x="13.00" y="111.5" >syscall.write</text>
</g>
<g >
<title>runtime.notetsleep (3 samples, 4.69%)</title><rect x="765.9" y="165" width="55.3" height="15.0" fill="rgb(219,143,49)" rx="2" ry="2" />
<text  x="768.94" y="175.5" >runti..</text>
</g>
<g >
<title>runtime.notewakeup (6 samples, 9.38%)</title><rect x="821.2" y="133" width="110.7" height="15.0" fill="rgb(208,163,18)" rx="2" ry="2" />
<text  x="824.25" y="143.5" >runtime.notew..</text>
</g>
<g >
<title>runtime.lock (1 samples, 1.56%)</title><rect x="931.9" y="149" width="18.4" height="15.0" fill="rgb(213,112,34)" rx="2" ry="2" />
<text  x="934.88" y="159.5" ></text>
</g>
<g >
<title>runtime.notewakeup (3 samples, 4.69%)</title><rect x="968.8" y="117" width="55.3" height="15.0" fill="rgb(254,58,54)" rx="2" ry="2" />
<text  x="971.75" y="127.5" >runti..</text>
</g>
<g >
<title>runtime.mstart (17 samples, 26.56%)</title><rect x="710.6" y="213" width="313.5" height="15.0" fill="rgb(227,118,28)" rx="2" ry="2" />
<text  x="713.62" y="223.5" >runtime.mstart</text>
</g>
<g >
<title>runtime.semasleep (5 samples, 7.81%)</title><rect x="1097.8" y="165" width="92.2" height="15.0" fill="rgb(234,184,13)" rx="2" ry="2" />
<text  x="1100.81" y="175.5" >runtime.sem..</text>
</g>
<g >
<title>runtime.notewakeup (3 samples, 4.69%)</title><rect x="655.3" y="117" width="55.3" height="15.0" fill="rgb(245,4,1)" rx="2" ry="2" />
<text  x="658.31" y="127.5" >runti..</text>
</g>
<g >
<title>runtime.pthread_mutex_lock (1 samples, 1.56%)</title><rect x="913.4" y="101" width="18.5" height="15.0" fill="rgb(230,64,16)" rx="2" ry="2" />
<text  x="916.44" y="111.5" ></text>
</g>
<g >
<title>runtime.asmcgocall (1 samples, 1.56%)</title><rect x="378.8" y="213" width="18.4" height="15.0" fill="rgb(222,206,21)" rx="2" ry="2" />
<text  x="381.75" y="223.5" ></text>
</g>
<g >
<title>runtime.pthread_cond_signal (5 samples, 7.81%)</title><rect x="821.2" y="101" width="92.2" height="15.0" fill="rgb(234,120,30)" rx="2" ry="2" />
<text  x="824.25" y="111.5" >runtime.pth..</text>
</g>
<g >
<title>runtime.goready (1 samples, 1.56%)</title><rect x="1024.1" y="181" width="18.4" height="15.0" fill="rgb(211,3,8)" rx="2" ry="2" />
<text  x="1027.06" y="191.5" ></text>
</g>
<g >
<title>runtime.osyield (1 samples, 1.56%)</title><rect x="931.9" y="133" width="18.4" height="15.0" fill="rgb(235,227,37)" rx="2" ry="2" />
<text  x="934.88" y="143.5" ></text>
</g>
<g >
<title>runtime.entersyscallblock_handoff (6 samples, 9.38%)</title><rect x="821.2" y="181" width="110.7" height="15.0" fill="rgb(237,147,22)" rx="2" ry="2" />
<text  x="824.25" y="191.5" >runtime.enter..</text>
</g>
<g >
<title>runtime.notesleep (10 samples, 15.62%)</title><rect x="470.9" y="133" width="184.4" height="15.0" fill="rgb(218,173,36)" rx="2" ry="2" />
<text  x="473.94" y="143.5" >runtime.notesleep</text>
</g>
<g >
<title>runtime.nanotime (3 samples, 4.69%)</title><rect x="1042.5" y="165" width="55.3" height="15.0" fill="rgb(221,225,13)" rx="2" ry="2" />
<text  x="1045.50" y="175.5" >runti..</text>
</g>
<g >
<title>runtime.runqsteal (2 samples, 3.12%)</title><rect x="434.1" y="149" width="36.8" height="15.0" fill="rgb(250,67,33)" rx="2" ry="2" />
<text  x="437.06" y="159.5" >run..</text>
</g>
<g >
<title>runtime.ready (3 samples, 4.69%)</title><rect x="968.8" y="165" width="55.3" height="15.0" fill="rgb(205,143,4)" rx="2" ry="2" />
<text  x="971.75" y="175.5" >runti..</text>
</g>
<g >
<title>runtime.usleep (1 samples, 1.56%)</title><rect x="931.9" y="117" width="18.4" height="15.0" fill="rgb(205,80,1)" rx="2" ry="2" />
<text  x="934.88" y="127.5" ></text>
</g>
<g >
<title>runtime.pthread_cond_signal (1 samples, 1.56%)</title><rect x="950.3" y="117" width="18.5" height="15.0" fill="rgb(206,121,25)" rx="2" ry="2" />
<text  x="953.31" y="127.5" ></text>
</g>
<g >
<title>runtime.systemstack (11 samples, 17.19%)</title><rect x="821.2" y="197" width="202.9" height="15.0" fill="rgb(246,43,32)" rx="2" ry="2" />
<text  x="824.25" y="207.5" >runtime.systemstack</text>
</g>
<g >
<title>time.Sleep (2 samples, 3.12%)</title><rect x="341.9" y="197" width="36.9" height="15.0" fill="rgb(239,179,53)" rx="2" ry="2" />
<text  x="344.88" y="207.5" >tim..</text>
</g>
<g >
<title>runtime.notetsleep_internal (8 samples, 12.50%)</title><rect x="1042.5" y="181" width="147.5" height="15.0" fill="rgb(231,214,20)" rx="2" ry="2" />
<text  x="1045.50" y="191.5" >runtime.notetsleep..</text>
</g>
<g >
<title>runtime.pthread_cond_timedwait_relative_np (5 samples, 7.81%)</title><rect x="1097.8" y="149" width="92.2" height="15.0" fill="rgb(240,127,21)" rx="2" ry="2" />
<text  x="1100.81" y="159.5" >runtime.pth..</text>
</g>
<g >
<title>runtime.sysmon (6 samples, 9.38%)</title><rect x="710.6" y="181" width="110.6" height="15.0" fill="rgb(211,186,38)" rx="2" ry="2" />
<text  x="713.62" y="191.5" >runtime.sysmon</text>
</g>
<g >
<title>runtime.mapassign (1 samples, 1.56%)</title><rect x="323.4" y="181" width="18.5" height="15.0" fill="rgb(247,180,43)" rx="2" ry="2" />
<text  x="326.44" y="191.5" ></text>
</g>
<g >
<title>runtime.resetspinning (3 samples, 4.69%)</title><rect x="655.3" y="165" width="55.3" height="15.0" fill="rgb(226,181,0)" rx="2" ry="2" />
<text  x="658.31" y="175.5" >runti..</text>
</g>
<g >
<title>runtime.pthread_cond_wait (2 samples, 3.12%)</title><rect x="397.2" y="133" width="36.9" height="15.0" fill="rgb(248,165,38)" rx="2" ry="2" />
<text  x="400.19" y="143.5" >run..</text>
</g>
<g >
<title>runtime.startm (3 samples, 4.69%)</title><rect x="655.3" y="133" width="55.3" height="15.0" fill="rgb(227,176,28)" rx="2" ry="2" />
<text  x="658.31" y="143.5" >runti..</text>
</g>
<g >
<title>runtime.exitsyscallfast_pidle (2 samples, 3.12%)</title><rect x="931.9" y="165" width="36.9" height="15.0" fill="rgb(216,202,49)" rx="2" ry="2" />
<text  x="934.88" y="175.5" >run..</text>
</g>
<g >
<title>runtime.pthread_cond_signal (3 samples, 4.69%)</title><rect x="968.8" y="85" width="55.3" height="15.0" fill="rgb(235,138,35)" rx="2" ry="2" />
<text  x="971.75" y="95.5" >runti..</text>
</g>
<g >
<title>runtime.usleep (2 samples, 3.12%)</title><rect x="434.1" y="117" width="36.8" height="15.0" fill="rgb(239,168,39)" rx="2" ry="2" />
<text  x="437.06" y="127.5" >run..</text>
</g>
<g >
<title>runtime.timerproc (9 samples, 14.06%)</title><rect x="1024.1" y="213" width="165.9" height="15.0" fill="rgb(229,0,52)" rx="2" ry="2" />
<text  x="1027.06" y="223.5" >runtime.timerproc</text>
</g>
<g >
<title>runtime.stopm (2 samples, 3.12%)</title><rect x="397.2" y="181" width="36.9" height="15.0" fill="rgb(232,96,21)" rx="2" ry="2" />
<text  x="400.19" y="191.5" >run..</text>
</g>
<g >
<title>runtime.bulkBarrierPreWrite (1 samples, 1.56%)</title><rect x="323.4" y="149" width="18.5" height="15.0" fill="rgb(247,185,28)" rx="2" ry="2" />
<text  x="326.44" y="159.5" ></text>
</g>
</g>
</svg>
